<svg xmlns="http://www.w3.org/2000/svg" width="1100" height="435" viewBox="0 0 1100 435">
<rect width="100%" height="100%" fill="white"/>
<text x="40" y="38" font-family="Arial,sans-serif" font-size="23" font-weight="bold" fill="#222">EA Macro F1 by Category (R2)</text>
<line x1="280" y1="58" x2="280" y2="405" stroke="#555"/>
<text x="268" y="90" text-anchor="end" font-family="Arial,sans-serif" font-size="14" fill="#222">benign</text>
<rect x="280" y="73" width="0.00" height="22" fill="#756bb1"/>
<text x="288.00" y="90" font-family="Arial,sans-serif" font-size="13" fill="#222">0.000</text>
<text x="268" y="130" text-anchor="end" font-family="Arial,sans-serif" font-size="14" fill="#222">deap</text>
<rect x="280" y="113" width="426.91" height="22" fill="#756bb1"/>
<text x="714.91" y="130" font-family="Arial,sans-serif" font-size="13" fill="#222">0.628</text>
<text x="268" y="170" text-anchor="end" font-family="Arial,sans-serif" font-size="14" fill="#222">generic_unsafe</text>
<rect x="280" y="153" width="0.00" height="22" fill="#756bb1"/>
<text x="288.00" y="170" font-family="Arial,sans-serif" font-size="13" fill="#222">0.000</text>
<text x="268" y="210" text-anchor="end" font-family="Arial,sans-serif" font-size="14" fill="#222">llm_ea</text>
<rect x="280" y="193" width="320.53" height="22" fill="#756bb1"/>
<text x="608.53" y="210" font-family="Arial,sans-serif" font-size="13" fill="#222">0.471</text>
<text x="268" y="250" text-anchor="end" font-family="Arial,sans-serif" font-size="14" fill="#222">llm_non_ea</text>
<rect x="280" y="233" width="0.00" height="22" fill="#756bb1"/>
<text x="288.00" y="250" font-family="Arial,sans-serif" font-size="13" fill="#222">0.000</text>
<text x="268" y="290" text-anchor="end" font-family="Arial,sans-serif" font-size="14" fill="#222">non_deap</text>
<rect x="280" y="273" width="14.22" height="22" fill="#756bb1"/>
<text x="302.22" y="290" font-family="Arial,sans-serif" font-size="13" fill="#222">0.021</text>
<text x="268" y="330" text-anchor="end" font-family="Arial,sans-serif" font-size="14" fill="#222">unsafe_ea</text>
<rect x="280" y="313" width="325.57" height="22" fill="#756bb1"/>
<text x="613.57" y="330" font-family="Arial,sans-serif" font-size="13" fill="#222">0.479</text>
<text x="268" y="370" text-anchor="end" font-family="Arial,sans-serif" font-size="14" fill="#222">unsafe_non_ea</text>
<rect x="280" y="353" width="0.00" height="22" fill="#756bb1"/>
<text x="288.00" y="370" font-family="Arial,sans-serif" font-size="13" fill="#222">0.000</text>
</svg>
